<?xml version="1.0" encoding="UTF-8"?> <svg xmlns="http://www.w3.org/2000/svg" width="574" height="613" viewBox="0 0 574 613" fill="none"><path d="M386.591 207.18C360.837 181.834 326.131 167.645 290.047 167.783H288.67C212.37 168.885 151.496 231.425 152.461 307.74C153.425 383.09 214.712 443.702 290.047 443.977H291.424C367.723 443.288 428.873 380.886 428.184 304.571C427.771 267.791 412.897 232.802 386.591 207.18Z" fill="url(#paint0_linear_105_24)"></path><path d="M348.992 190.512C332.741 186.38 319.795 189.823 309.19 200.568C307.951 201.946 306.711 203.323 305.471 204.838C302.717 208.282 300.376 211.313 295.004 212.553C287.843 213.93 280.406 214.343 273.106 213.517C271.04 213.241 269.25 212.828 267.735 212.415C262.226 211.175 259.058 210.349 252.448 216.547C250.382 218.614 248.591 220.818 246.939 223.297C244.047 227.292 241.292 231.011 236.885 232.802C234.819 233.629 232.615 234.042 230.412 234.18C230.274 234.042 229.999 234.042 229.861 233.904L229.723 234.18C226.556 234.317 223.388 234.042 220.22 233.491C217.741 233.078 215.262 232.94 212.783 232.802C216.226 227.843 219.119 222.609 221.598 217.236C226.142 216.547 229.999 213.517 233.855 210.624C235.783 208.971 237.987 207.456 240.19 206.216C247.765 202.083 251.346 198.64 257.957 191.339C264.154 184.589 270.765 180.318 278.891 176.048C282.885 173.982 286.466 171.089 289.22 167.37C316.214 167.507 341.417 173.844 363.591 188.446C361.25 190.237 356.292 192.303 348.992 190.512Z" fill="#DADADA"></path><path d="M423.777 286.526C421.849 285.837 420.058 284.873 418.268 283.909C415.513 282.118 412.484 281.016 409.316 280.327L401.328 276.332C388.657 274.128 383.424 275.781 370.615 272.2C364.693 270.409 358.496 269.72 352.298 269.858L352.023 269.582L351.747 269.858C347.34 270.133 342.933 270.684 337.975 271.373L334.532 271.786C333.154 271.924 331.64 272.2 329.849 272.475C318.969 274.266 300.652 277.159 294.316 269.996L293.903 270.271C284.125 264.485 273.107 261.455 261.813 261.455C244.185 261.455 238.676 256.634 228.622 248.093C226.969 246.578 225.041 245.062 222.975 243.272H225.73C230.275 244.925 235.095 245.751 239.915 245.751C240.879 245.751 241.706 245.751 242.67 245.613C245.149 245.338 247.49 244.236 249.281 242.445C250.107 241.756 250.933 241.067 251.76 240.516C253.688 239.414 255.891 238.863 258.233 239.001C259.197 239.001 260.298 238.863 261.263 238.726C266.083 238.175 269.388 235.42 272.694 232.94C275.724 230.598 278.616 228.256 282.472 227.705C283.436 227.568 284.4 227.43 285.502 227.43C288.119 227.43 290.598 226.879 292.939 225.639C294.179 224.813 295.28 223.848 296.244 222.746C297.346 221.369 298.861 220.405 300.376 219.578C305.472 217.787 307.676 213.655 310.43 210.073C311.67 208.558 317.316 207.731 318.831 206.216C330.262 194.369 339.49 190.237 357.118 194.645C366.071 196.849 369.514 197.262 372.544 195.058C402.43 217.236 421.987 250.572 426.945 287.352C425.705 287.215 424.741 286.939 423.777 286.526ZM249.005 405.958C248.867 405.131 248.73 404.167 248.73 403.34C248.73 401.274 248.454 399.345 248.041 397.279C247.077 392.596 245.7 391.769 244.047 390.529C242.67 389.565 241.43 388.463 240.466 387.085C238.814 384.606 237.574 381.713 236.885 378.82L236.748 378.407L240.466 380.473C241.155 380.749 241.843 381.162 242.808 381.713C246.388 383.642 251.346 386.259 253.825 386.121C256.029 385.846 257.957 384.744 259.197 383.091C260.298 381.989 264.017 384.193 265.67 383.779C268.562 383.228 272.005 382.402 276.412 384.193C278.203 384.881 279.855 385.57 281.095 385.983C283.436 386.672 285.777 387.636 287.981 388.601C291.7 390.392 295.556 391.631 299.688 392.458C301.891 392.733 304.232 392.871 306.436 392.871C310.568 392.596 314.837 393.56 318.556 395.488C327.232 399.759 329.023 400.172 338.526 399.208C345.55 398.519 354.639 397.83 361.388 398.932C367.861 400.034 373.783 402.927 379.568 406.784C379.568 407.335 380.394 409.264 380.532 409.815C356.603 431.693 325.359 443.829 292.939 443.84C290.047 443.84 287.292 443.702 284.4 443.564C283.161 442.187 281.646 440.947 280.131 439.845C278.34 438.743 276.412 437.778 274.346 437.227C271.592 436.263 268.837 435.299 267.322 433.508C265.119 431.166 265.394 428.549 265.67 425.932C265.945 424.141 265.807 422.35 265.257 420.697C264.017 418.08 261.263 416.427 258.233 414.774C256.442 413.81 254.79 412.707 253.275 411.468C251.76 410.228 250.382 408.85 249.418 407.197C249.694 406.922 249.005 405.958 249.005 405.958ZM215.125 196.849C214.85 200.293 215.125 203.874 215.676 207.318C216.365 211.864 216.915 216.272 215.125 221.231L214.987 221.782H214.85V222.058C212.508 227.981 207.137 236.384 204.52 240.241C198.736 239.414 195.981 235.144 193.089 230.461C191.436 227.292 189.095 224.537 186.478 222.058C185.101 221.093 183.724 220.129 182.347 219.303C192.263 207.043 204.107 196.436 217.604 188.17C216.227 190.925 215.4 193.818 215.125 196.849Z" fill="#DADADA"></path><path d="M387.83 401.825C387.555 399.07 387.555 396.177 387.417 393.284C387.279 378.131 386.591 373.172 376.399 364.632C368.549 358.019 359.597 354.851 356.705 344.933C355.052 339.423 355.052 332.535 355.052 325.234C355.052 322.066 355.052 318.76 354.914 315.592C355.603 312.423 356.843 309.393 358.22 306.638C359.872 302.918 362.627 299.061 362.076 295.066C361.663 291.623 362.076 294.102 360.561 289.556C359.322 285.561 356.843 283.357 353.95 281.016C359.322 281.016 364.831 281.704 370.064 283.22C382.872 286.939 394.992 282.118 407.663 284.322L408.902 284.597C411.932 285.148 414.824 286.388 417.441 288.041C419.231 289.143 421.16 289.97 423.088 290.796C424.327 291.209 425.705 291.623 426.944 291.898C427.633 296.582 427.908 301.265 428.046 305.949C428.046 342.04 413.998 376.754 388.657 402.514L387.83 401.825ZM167.059 346.31C168.298 346.724 169.4 347.137 170.502 347.55C175.322 349.203 179.867 351.407 184.137 354.162C188.544 357.193 192.125 360.361 194.741 365.183C197.496 370.417 199.562 373.861 205.071 376.754L206.723 377.58C213.61 381.162 218.43 383.641 222.011 390.529C224.214 394.662 228.071 396.452 231.927 398.106C233.993 398.932 235.921 400.034 237.849 401.136L238.538 401.687L239.915 402.651C240.466 404.58 241.843 406.371 245.148 409.263C246.939 410.779 248.867 412.019 250.933 413.121C253.963 414.911 256.855 416.564 258.094 419.044C258.645 420.697 258.783 422.35 258.37 424.003C258.094 427.034 257.819 430.477 260.711 433.646C262.639 435.85 265.945 436.952 269.112 438.054C271.316 438.743 273.244 439.569 275.172 440.809C276.274 441.635 277.376 442.6 278.478 443.564C220.358 438.605 171.741 397.692 156.729 341.351C159.346 343.693 163.478 345.071 167.059 346.31ZM188.957 234.042C191.298 237.899 193.777 241.756 198.047 243.547C194.053 244.236 192.813 243.134 188.681 246.715C186.478 248.644 181.658 248.23 179.729 250.435C176.286 254.016 175.46 260.353 171.191 262.557C166.646 264.899 161.825 266.827 157.005 268.342C161.963 250.71 168.023 237.623 179.041 223.71C180.28 224.399 181.52 225.226 182.759 226.19C185.238 228.256 187.442 231.011 188.957 234.042Z" fill="#DADADA"></path><path d="M363.592 365.32L364.556 366.147C373.508 373.723 375.987 375.79 376.125 388.738C376.125 391.08 376.262 393.284 376.4 395.488C370.753 391.907 364.969 389.014 358.634 388.05C351.61 386.948 342.52 387.636 335.358 388.325C326.269 389.289 328.197 386.81 319.796 382.539C314.424 379.784 307.263 381.988 303.544 381.988C301.341 381.988 299.137 381.851 296.933 381.575C293.077 380.749 289.221 379.509 285.64 377.856C283.299 376.891 284.401 374.963 281.921 374.274C280.82 373.861 275.862 374.136 273.934 373.448C269.113 371.519 263.191 369.04 259.748 369.728C257.958 370.142 256.305 371.244 255.203 372.621C254.101 374.136 252.449 375.101 250.658 375.376C248.592 375.514 243.772 372.897 240.467 371.106C239.502 370.555 238.676 370.142 238.125 369.866C236.335 369.04 234.682 368.075 233.167 366.973C233.167 366.836 233.167 366.698 233.029 366.56L232.754 366.698C229.035 363.943 225.317 361.05 222.012 357.744C215.125 351.407 207 346.586 198.048 343.831C203.694 343.004 208.377 340.387 213.197 337.632C217.191 335.152 221.598 333.086 226.006 331.571C231.515 329.918 237.85 329.918 243.91 329.918C250.383 329.918 256.993 329.78 262.916 327.852C268.975 325.785 273.52 321.515 277.927 317.245C282.61 312.836 288.395 312.148 294.868 310.357C300.101 308.979 306.712 304.571 314.838 304.158C324.754 303.607 335.083 302.918 341.694 300.439C345.412 305.122 346.514 311.872 346.927 319.035V319.173C347.065 322.066 347.065 324.959 347.065 327.852C347.065 334.601 347.203 340.938 348.58 345.897C351.197 354.851 356.568 359.535 363.592 365.32ZM155.629 338.045C153.15 328.127 151.91 317.933 151.91 307.602C151.772 296.719 152.874 285.975 155.215 275.368C160.311 273.99 165.132 272.062 169.952 269.858C174.084 267.791 177.251 267.103 180.419 263.659C182.209 261.73 184 259.939 185.928 258.149C193.64 251.674 200.664 252.501 207.964 253.465C209.754 253.74 211.545 253.878 213.335 254.016C215.814 255.945 218.018 255.118 219.946 256.771C228.898 264.485 234.269 272.337 250.658 272.337C262.502 272.337 271.73 272.475 281.095 278.123L281.921 278.536C284.401 280.051 286.88 281.704 289.359 283.495L291.011 284.597C296.245 288.316 301.203 291.898 308.089 293C310.43 293.276 312.772 293.413 315.251 293.276C319.796 293.138 323.652 293.138 327.095 296.582C320.76 298.923 310.844 299.474 301.203 300.025C293.077 300.576 285.502 300.99 280.131 302.367C273.245 304.158 268.287 308.979 263.466 313.525C258.922 317.796 254.79 321.928 249.005 323.857C243.221 325.785 236.886 325.785 230.55 325.785C224.215 325.785 218.018 325.785 212.233 327.576C207.551 329.091 203.143 331.158 199.149 333.775C193.227 337.219 187.581 340.387 180.143 339.974C177.94 339.423 175.874 339.009 173.67 338.734L173.12 338.596V338.734C167.06 338.045 161.413 337.77 155.629 338.045ZM87.1797 159.242C73.6827 159.38 60.1858 158.691 46.6888 157.176C18.8686 153.87 4.40756 146.844 1.23991 135.135C-3.85588 116.676 23.0003 101.11 43.6589 91.0544C122.162 52.7591 294.317 12.9485 427.496 2.47933C468.675 -0.826735 503.244 -0.964488 527.621 1.92832C555.441 5.23439 569.902 12.2598 573.208 23.9688C578.304 42.4277 551.447 57.9937 530.789 68.0497C452.286 106.345 280.131 146.156 146.952 156.625C124.916 158.416 104.808 159.242 87.1797 159.242ZM428.735 19.1474C297.209 29.6166 127.808 68.6007 50.8206 106.069C17.7668 122.187 17.0782 130.865 17.0782 130.865C18.18 134.86 43.2458 148.222 145.437 140.094C276.826 129.625 446.364 90.6411 523.352 53.1724C556.405 37.0553 557.094 28.3769 557.094 28.3769C555.992 24.382 530.927 11.02 428.735 19.1474ZM86.4911 613C72.9941 613.138 59.4972 612.449 46.0002 610.934C18.18 607.627 3.71894 600.602 0.55129 588.893C-4.5445 570.434 22.3117 554.868 42.9703 544.812C121.473 506.517 293.628 466.706 426.807 456.237C467.987 452.931 502.555 452.793 526.933 455.686C554.753 458.992 569.214 466.018 572.381 477.727C577.477 496.185 550.621 511.751 529.962 521.807C451.46 560.103 279.305 599.913 146.126 610.383C124.227 612.036 104.257 613 86.4911 613ZM428.184 472.767C296.796 483.237 127.257 522.221 50.2697 559.69C17.2159 575.807 16.5273 584.485 16.5273 584.485C17.6291 588.48 42.6948 601.842 144.886 593.714C276.275 583.245 445.813 544.261 522.801 506.792C555.855 490.675 556.543 481.997 556.543 481.997C555.441 478.002 530.376 464.64 428.184 472.767Z" fill="#DADADA"></path><defs><linearGradient id="paint0_linear_105_24" x1="290.321" y1="443.874" x2="290.321" y2="167.721" gradientUnits="userSpaceOnUse"><stop stop-color="#603211"></stop><stop offset="0.17" stop-color="#DD7D26"></stop><stop offset="0.35" stop-color="#603211"></stop><stop offset="0.54" stop-color="#9C3520"></stop><stop offset="0.77" stop-color="#DD7D26"></stop><stop offset="1" stop-color="#603211"></stop></linearGradient></defs></svg> 